 <svg  version="1.0" xmlns="http://www.w3.org/2000/svg"  width="300.000000pt" height="300.000000pt" viewBox="0 0 300.000000 300.000000"  preserveAspectRatio="xMidYMid meet">  <g transform="translate(0.000000,300.000000) scale(0.100000,-0.100000)" fill="#f6ce04" stroke="none"> <path d="M1300 2984 c-207 -32 -449 -117 -581 -205 -20 -13 -44 -28 -54 -34 -11 -7 263 -10 835 -10 572 0 846 3 835 10 -10 6 -34 21 -54 34 -59 39 -230 117 -321 146 -157 49 -350 79 -364 56 -4 -6 -4 -11 1 -10 23 6 292 -51 373 -78 89 -30 260 -111 260 -123 0 -5 -326 -9 -736 -10 -404 0 -733 4 -730 8 9 15 189 100 266 126 65 22 201 52 322 71 51 8 59 25 11 24 -21 -1 -49 -3 -63 -5z"/> <path d="M570 1928 c1 -598 2 -671 16 -653 12 16 14 87 14 475 0 250 0 537 0 638 l0 182 953 0 954 0 40 -37 c22 -21 72 -78 112 -127 l71 -90 0 -816 0 -816 -71 -90 c-39 -49 -89 -105 -111 -125 l-39 -36 -949 2 c-523 1 -952 4 -954 6 -3 2 -7 71 -9 152 -3 91 -9 153 -16 160 -8 8 -11 -35 -11 -166 l0 -177 978 0 979 0 69 73 c39 39 91 102 117 138 l47 67 0 812 0 812 -47 67 c-26 36 -80 101 -122 144 l-74 77 -974 0 -973 0 0 -672z"/> <path d="M370 2485 c-133 -158 -227 -324 -290 -512 -51 -155 -86 -363 -60 -363 5 0 11 15 14 33 35 228 68 341 146 502 48 99 114 207 156 255 12 14 32 36 43 50 14 17 21 20 21 10 1 -8 2 -279 3 -602 1 -322 5 -590 10 -594 4 -4 9 -5 12 -3 6 7 11 1289 5 1289 -3 0 -30 -29 -60 -65z"/> <path d="M2895 1500 c0 -302 3 -543 7 -536 33 58 102 405 85 423 -13 12 -18 -4 -34 -103 -9 -55 -20 -103 -24 -108 -5 -6 -9 137 -8 317 0 180 4 327 8 327 5 0 14 -42 21 -92 13 -101 40 -164 40 -97 0 76 -61 357 -88 406 -4 6 -7 -235 -7 -537z"/> <path d="M2030 1961 c-95 -31 -160 -89 -204 -181 -27 -58 -31 -75 -31 -160 0 -52 6 -114 13 -137 27 -89 110 -159 303 -252 142 -68 159 -82 159 -131 0 -50 -32 -76 -105 -85 -69 -9 -128 17 -180 81 -20 24 -45 44 -55 44 -29 0 -190 -100 -202 -125 -9 -19 -6 -30 18 -62 69 -94 163 -164 256 -189 63 -17 206 -19 292 -3 105 19 204 87 247 172 74 144 59 293 -42 402 -58 63 -108 95 -209 135 -117 46 -160 68 -192 98 -43 39 -37 92 13 117 49 26 85 19 133 -25 24 -22 48 -40 54 -40 13 0 75 39 144 90 81 59 75 92 -25 163 -89 63 -163 89 -272 93 -49 2 -101 0 -115 -5z m242 -41 c73 -23 133 -58 181 -108 l38 -39 -43 -28 c-24 -15 -69 -48 -101 -72 l-57 -44 -9 24 c-32 82 -176 98 -221 24 -53 -87 1 -146 200 -222 113 -43 178 -83 225 -137 56 -66 78 -123 77 -203 -1 -230 -176 -360 -460 -342 -119 7 -206 51 -296 148 -62 67 -80 99 -56 99 6 0 50 25 98 55 76 47 88 52 97 38 22 -36 80 -95 106 -109 37 -19 152 -18 189 1 36 19 60 62 60 109 0 47 -27 67 -205 155 -229 113 -277 171 -276 343 1 263 188 390 453 308z"/> <path d="M1376 1935 c-20 -15 -21 -50 -25 -623 l-1 -234 -29 -29 c-24 -24 -38 -29 -77 -29 -44 0 -51 3 -94 50 -27 30 -55 50 -67 50 -28 0 -182 -106 -195 -135 -19 -43 49 -138 138 -191 51 -30 126 -45 229 -44 169 0 291 65 367 195 l23 40 0 459 c0 430 -1 461 -18 483 -17 22 -25 23 -125 23 -76 -1 -112 -5 -126 -15z m244 -471 l0 -460 -26 -52 c-32 -64 -79 -106 -164 -146 -61 -29 -72 -31 -185 -31 -111 0 -125 2 -183 29 -34 16 -78 46 -97 68 -44 48 -75 110 -59 115 6 2 51 31 99 64 48 33 89 58 90 57 1 -2 10 -17 19 -35 49 -96 192 -109 246 -21 19 32 20 49 20 453 l0 420 120 0 120 0 0 -461z"/> <path d="M10 1375 c0 -17 7 -73 15 -126 30 -203 131 -445 258 -620 57 -80 147 -185 150 -177 1 2 0 75 -3 163 -6 177 -19 194 -24 30 -1 -58 -5 -107 -8 -110 -3 -3 -23 17 -45 43 -155 183 -281 479 -313 734 -9 74 -30 117 -30 63z"/> <path d="M438 1235 c-121 -44 -183 -169 -148 -296 13 -48 75 -118 124 -140 51 -23 143 -25 194 -3 114 47 174 198 123 310 -51 112 -182 170 -293 129z m185 -47 c106 -74 133 -181 72 -279 -13 -20 -41 -50 -61 -66 -33 -24 -46 -28 -103 -27 -36 0 -76 3 -87 5 -50 11 -122 88 -130 139 -2 8 -6 30 -9 48 -3 17 -2 32 3 32 5 0 8 10 7 22 -2 30 35 83 82 117 33 24 48 28 116 30 66 2 83 -2 110 -21z"/> <path d="M663 258 c45 -35 208 -120 289 -152 126 -50 325 -95 417 -96 57 0 -1 22 -105 40 -60 10 -122 23 -139 28 -16 6 -57 18 -90 27 -59 17 -290 124 -282 131 6 6 1410 11 1456 5 l43 -6 -103 -52 c-146 -72 -247 -105 -414 -134 -103 -18 -160 -39 -105 -39 133 1 374 68 535 148 58 29 195 110 195 115 0 1 -387 2 -860 2 -814 0 -859 -1 -837 -17z"/> </g> </svg> 