<svg xmlns="http://www.w3.org/2000/svg" xmlns:xlink="http://www.w3.org/1999/xlink" width="500" zoomAndPan="magnify" viewBox="0 0 375 374.999991" height="500" preserveAspectRatio="xMidYMid meet" version="1.0"><path fill="#3b82f6" d="M 335.015625 348.921875 L 236.800781 312.386719 C 234.726562 311.617188 233.019531 310.09375 232.019531 308.121094 L 195.691406 236.484375 C 192.410156 230.015625 183.148438 230.066406 179.941406 236.574219 L 144.953125 307.480469 C 143.957031 309.496094 142.234375 311.054688 140.125 311.835938 L 40.101562 349.046875 C 32.664062 351.8125 25.648438 344.105469 29.105469 336.960938 L 177.582031 29.96875 C 180.769531 23.378906 190.132812 23.328125 193.394531 29.882812 L 345.972656 336.753906 C 349.527344 343.898438 342.496094 351.707031 335.015625 348.921875 " fill-opacity="1" fill-rule="nonzero"/><path fill="#2563eb" d="M 251.484375 146.714844 C 220.945312 167.707031 197.039062 197.648438 183.554688 232.757812 C 182.070312 233.570312 180.792969 234.84375 179.9375 236.574219 L 144.953125 307.480469 C 143.957031 309.496094 142.230469 311.054688 140.125 311.835938 L 40.101562 349.046875 C 32.660156 351.8125 25.648438 344.105469 29.105469 336.957031 L 177.582031 29.972656 C 180.769531 23.378906 190.132812 23.328125 193.394531 29.882812 L 251.484375 146.714844 " fill-opacity="1" fill-rule="nonzero"/><path fill="#dbeafe" d="M 183.554688 232.757812 C 184.628906 232.164062 185.816406 231.808594 187.019531 231.699219 C 185.816406 231.808594 184.628906 232.164062 183.554688 232.757812 M 187.023438 231.699219 C 187.027344 231.699219 187.03125 231.699219 187.035156 231.699219 C 187.03125 231.699219 187.027344 231.699219 187.023438 231.699219 M 187.046875 231.699219 L 187.046875 231.699219 M 253.933594 151.648438 L 251.480469 146.714844 C 251.484375 146.714844 251.484375 146.714844 251.484375 146.714844 L 253.933594 151.648438 " fill-opacity="1" fill-rule="nonzero"/><path fill="#1e3a8a" d="M 206.371094 257.546875 L 195.691406 236.484375 C 194.058594 233.269531 190.949219 231.664062 187.839844 231.664062 C 187.574219 231.664062 187.3125 231.675781 187.046875 231.699219 C 187.042969 231.699219 187.039062 231.699219 187.035156 231.699219 C 187.03125 231.699219 187.027344 231.699219 187.023438 231.699219 C 187.023438 231.699219 187.019531 231.699219 187.019531 231.699219 C 185.816406 231.808594 184.628906 232.164062 183.554688 232.757812 C 197.039062 197.648438 220.945312 167.707031 251.484375 146.714844 L 253.933594 151.648438 L 254.246094 152.273438 C 225.710938 176.25 200.101562 222.769531 206.371094 257.546875 " fill-opacity="1" fill-rule="nonzero"/></svg>